<svg width="60" height="40" viewBox="0 0 73 53" fill="none" xmlns="http://www.w3.org/2000/svg">
<path fill-rule="evenodd" clip-rule="evenodd" d="M36.4805 27.2343L70.2686 0.849351C70.5495 0.622239 70.9147 0.497239 71.2885 0.474931C71.3838 0.469102 71.4796 0.469987 71.5746 0.477525C71.9344 0.50612 72.2836 0.630357 72.5546 0.849351C73.1633 1.34166 73.1459 2.12599 72.5156 2.60146L37.604 29.8612C37.4297 29.9972 37.2249 30.095 37.0069 30.1545C36.9645 30.1661 36.9216 30.1762 36.8783 30.1849C36.7495 30.2112 36.6159 30.2252 36.4805 30.2255C36.0593 30.226 35.6551 30.0959 35.357 29.8636L0.445408 2.6039C-0.1571 2.1169 -0.146236 1.34374 0.464726 0.866899C1.07514 0.387437 2.06766 0.378098 2.69245 0.849351L36.4805 27.2343ZM36.4805 49.5376L70.2686 23.1527C70.5203 22.9628 70.8319 22.8511 71.1541 22.8167C71.2271 22.8087 71.3006 22.8047 71.3741 22.8047C71.7716 22.8047 72.1691 22.9207 72.4766 23.1526C73.107 23.6281 73.1245 24.4125 72.5156 24.9047L37.604 52.1644C37.4378 52.2942 37.2439 52.3891 37.0372 52.4493C37.003 52.4592 36.9685 52.4682 36.9338 52.4762C36.788 52.5104 36.6355 52.5285 36.4805 52.5288C36.0594 52.5294 35.6551 52.3993 35.357 52.167L0.445408 24.9073C-0.155178 24.4218 -0.146297 23.6521 0.458836 23.1749C1.06873 22.6908 2.06565 22.68 2.69245 23.1527L36.4805 49.5376Z" fill="#800080"/>
</svg>